<?xml version="1.0" standalone="no"?>
<!DOCTYPE svg PUBLIC "-//W3C//DTD SVG 20010904//EN"
 "http://www.w3.org/TR/2001/REC-SVG-20010904/DTD/svg10.dtd">
<svg version="1.0" xmlns="http://www.w3.org/2000/svg"
 width="160.000000pt" height="110.000000pt" viewBox="0 0 160.000000 110.000000"
 preserveAspectRatio="xMidYMid meet">

<g transform="translate(0.000000,110.000000) scale(0.100000,-0.100000)"
fill="#000000" stroke="none">
<path d="M569 840 l-286 -5 -38 -29 c-54 -42 -79 -107 -111 -292 -29 -169 -28
-201 8 -234 21 -20 33 -20 575 -20 525 0 556 1 591 19 45 23 87 66 101 103 5
15 24 106 42 202 27 152 30 180 19 206 -7 17 -21 35 -32 41 -23 12 -464 17
-869 9z m846 -44 c11 -8 18 -24 17 -42 -2 -58 -63 -340 -80 -369 -10 -16 -37
-40 -62 -52 -44 -23 -45 -23 -565 -23 -556 0 -567 1 -573 50 -6 37 49 321 69
361 44 89 39 88 650 89 426 0 529 -3 544 -14z"/>
<path d="M303 740 c-42 -25 -56 -55 -82 -175 -12 -55 -28 -126 -35 -158 -8
-31 -10 -55 -6 -52 5 3 11 1 15 -5 4 -7 185 -10 527 -10 565 0 568 0 605 56
22 35 75 334 62 351 -9 10 -112 13 -533 13 -499 0 -522 -1 -553 -20z m186 -44
c63 -33 83 -115 47 -194 -15 -33 -17 -45 -8 -54 18 -18 15 -26 -14 -45 -23
-15 -28 -15 -38 -2 -8 11 -29 15 -73 15 -74 -1 -110 20 -130 79 -46 133 94
263 216 201z m605 -28 c-4 -24 -14 -88 -23 -143 l-16 -100 -32 -3 c-22 -2 -33
1 -33 10 0 18 31 250 36 266 2 6 19 12 39 12 l35 0 -6 -42z m-350 -49 c21 -17
26 -29 26 -65 l0 -44 -70 0 c-70 0 -83 -7 -55 -30 12 -10 21 -10 46 0 26 11
33 11 45 -2 14 -14 13 -18 -12 -37 -41 -32 -98 -29 -135 8 -90 90 54 249 155
170z m221 -4 c18 -18 25 -35 25 -65 l0 -40 -70 0 c-70 0 -83 -7 -55 -30 12
-10 21 -10 44 0 34 14 51 7 51 -19 0 -35 -105 -56 -141 -28 -81 62 -23 207 83
207 28 0 46 -7 63 -25z m206 -25 c-9 -94 -8 -105 17 -108 26 -4 31 6 46 92 10
53 14 61 35 64 13 2 27 0 32 -5 4 -4 2 -51 -6 -103 -8 -52 -15 -98 -15 -101 0
-4 -36 -7 -80 -7 -74 0 -82 2 -96 24 -16 24 -16 35 2 157 6 36 8 38 37 35 31
-3 32 -4 28 -48z"/>
<path d="M361 614 c-27 -34 -28 -95 -3 -117 22 -20 73 -24 54 -5 -18 18 -15
36 9 49 15 8 24 8 32 0 19 -19 27 -12 27 25 0 56 -15 74 -60 74 -30 0 -43 -6
-59 -26z"/>
<path d="M650 575 c-11 -13 -8 -15 25 -15 25 0 35 4 33 13 -7 18 -43 20 -58 2z"/>
<path d="M873 584 c-25 -11 -12 -24 23 -24 24 0 34 4 32 13 -5 13 -35 19 -55
11z"/>
</g>
</svg>
